<svg xmlns="http://www.w3.org/2000/svg" width="317" height="210" viewBox="0 0 317 210" fill="none"><rect y="24.0542" width="56.486" height="204.31" rx="28.243" transform="rotate(-25 0 24.0542)" fill="url(#paint0_linear)"/><rect x="149.454" y="0.187378" width="56.486" height="204.31" rx="28.243" transform="rotate(25 149.454 0.187378)" fill="url(#paint1_linear)"/><rect x="126.785" y="24.2405" width="56.486" height="204.31" rx="28.243" transform="rotate(-25 126.785 24.2405)" fill="url(#paint2_linear)"/><path fill-rule="evenodd" clip-rule="evenodd" d="M293.249 7.97239C274.951 1.31264 254.719 10.7469 248.06 29.0444C241.4 47.3419 250.834 67.5737 269.132 74.2335C274.479 76.1798 279.992 76.7515 285.282 76.1292C290.048 84.0387 279.424 108.587 272.584 116.954C262.842 128.87 315.363 80.8288 316.06 46.356C318.528 30.0958 309.297 13.8136 293.249 7.97239Z" fill="url(#paint3_linear)"/><defs><linearGradient id="paint0_linear" x1="28.243" y1="24.0542" x2="28.243" y2="228.364" gradientUnits="userSpaceOnUse"><stop stop-color="#00F0FF"/><stop offset="0.640625" stop-color="#97DFFF"/></linearGradient><linearGradient id="paint1_linear" x1="177.697" y1="0.187378" x2="177.697" y2="204.498" gradientUnits="userSpaceOnUse"><stop stop-color="#557AFF"/><stop offset="0.973958" stop-color="#97DFFF"/></linearGradient><linearGradient id="paint2_linear" x1="155.028" y1="24.2405" x2="155.156" y2="201.014" gradientUnits="userSpaceOnUse"><stop offset="0.145833" stop-color="#6B8BFF"/><stop offset="0.776042" stop-color="#E9B7D4"/><stop offset="1" stop-color="#E9B7D4"/></linearGradient><linearGradient id="paint3_linear" x1="293.249" y1="8.48321" x2="258.399" y2="85.7513" gradientUnits="userSpaceOnUse"><stop stop-color="#EAB9D5"/><stop offset="1" stop-color="#FF9EC3"/></linearGradient></defs></svg>